<?xml version="1.0" standalone="no"?><!DOCTYPE svg PUBLIC "-//W3C//DTD SVG 1.1//EN" "http://www.w3.org/Graphics/SVG/1.1/DTD/svg11.dtd"><svg class="icon" width="32px" height="32.00px" viewBox="0 0 1024 1024" version="1.1" xmlns="http://www.w3.org/2000/svg"><path fill="#1296db" d="M342.96 596.032h-32.112l-110.96 62.928a16 16 0 0 1-23.888-13.92V256a16 16 0 0 1 16-16h505.744a16 16 0 0 1 16 16v117.568h106.432a16 16 0 0 1 16 16v389.552a16 16 0 0 1-24.32 13.664l-103.648-63.2H358.96a16 16 0 0 1-16-16v-117.552z m0-48v-158.464a16 16 0 0 1 16-16h306.784V288H224v302.096l74.176-42.08h44.784z m48 133.568h330.72l66.496 40.528V421.568H390.96V681.6z" /></svg>