<?xml version="1.0" standalone="no"?><!DOCTYPE svg PUBLIC "-//W3C//DTD SVG 1.1//EN" "http://www.w3.org/Graphics/SVG/1.1/DTD/svg11.dtd"><svg class="icon" width="32px" height="32.00px" viewBox="0 0 1024 1024" version="1.1" xmlns="http://www.w3.org/2000/svg"><path fill="#1296db" d="M736 410.272h16a16 16 0 0 1 16 16v413.92a16 16 0 0 1-16 16H208a16 16 0 0 1-16-16v-624a16 16 0 0 1 16-16h394.592a16 16 0 0 1 16 16v16a16 16 0 0 1-16 16H240v560h480v-381.92a16 16 0 0 1 16-16z m78.16-229.6l11.312 11.328a16 16 0 0 1 0 22.624l-316.8 316.8a16 16 0 0 1-22.608 0l-11.312-11.328a16 16 0 0 1 0-22.624l316.784-316.8a16 16 0 0 1 22.624 0zM328 672.208h304a16 16 0 0 1 16 16v16a16 16 0 0 1-16 16h-304a16 16 0 0 1-16-16v-16a16 16 0 0 1 16-16z m8-104h64a16 16 0 0 1 16 16v16a16 16 0 0 1-16 16h-64a16 16 0 0 1-16-16v-16a16 16 0 0 1 16-16z" /></svg>